<?xml version="1.0" encoding="iso-8859-1"?><!DOCTYPE svg PUBLIC "-//W3C//DTD SVG 1.1//EN" "http://www.w3.org/Graphics/SVG/1.1/DTD/svg11.dtd"><svg viewBox="0 0 785.82 1010" xmlns="http://www.w3.org/2000/svg" xmlns:xlink="http://www.w3.org/1999/xlink"><style>:root>svg{display:none}:root>svg:target{display:block}</style><svg viewBox="0 0 459 459" id="black-list" xmlns="http://www.w3.org/2000/svg"><path d="M408 0H51C22.95 0 0 22.95 0 51v357c0 28.05 22.95 51 51 51h357c28.05 0 51-22.95 51-51V51c0-28.05-22.95-51-51-51zM153 357h-51v-51h51v51zm0-102h-51v-51h51v51zm0-102h-51v-51h51v51zm204 204H178.5v-51H357v51zm0-102H178.5v-51H357v51zm0-102H178.5v-51H357v51z"/></svg><svg viewBox="0 0 60 60" id="chat" xmlns="http://www.w3.org/2000/svg"><path d="M54.07 1H15.93C12.66 1 10 3.66 10 6.93V15H5.93C2.66 15 0 17.66 0 20.929V42.07C0 45.34 2.66 48 5.93 48H12v10a1 1 0 001.74.673L23.442 48H44.07c3.27 0 5.93-2.66 5.93-5.929V34h4.07c3.27 0 5.93-2.66 5.93-5.93V6.93C60 3.66 57.34 1 54.07 1zM48 42.071A3.934 3.934 0 0144.07 46H23a1 1 0 00-.74.327L14 55.414V47a1 1 0 00-1-1H5.93A3.934 3.934 0 012 42.07V20.929A3.934 3.934 0 015.93 17h38.14A3.934 3.934 0 0148 20.93v21.141zM58 28.07A3.934 3.934 0 0154.07 32H50V20.93c0-3.27-2.66-5.93-5.93-5.93H12V6.93A3.934 3.934 0 0115.93 3h38.14A3.934 3.934 0 0158 6.93v21.14z"/></svg><svg viewBox="0 0 688.249 688.248" id="contacts" xmlns="http://www.w3.org/2000/svg"><path d="M64.189 377.58h92.976c14.353-4.779 26.034-11.959 26.034-26.287 0-14.348-11.686-26.288-26.067-26.288H64.175c-14.367 0-26.053 11.939-26.053 26.288 0 14.328 11.681 21.508 26.067 26.287zm0-33.456h92.933c3.838 0 6.963 3.345 6.963 7.169 0 3.818-3.121 7.17-6.963 7.17H64.218c-3.848 0-6.978-3.352-6.978-7.17s3.12-7.169 6.949-7.169zM157.165 516.186c14.353 0 26.034-11.969 26.034-26.301 0-14.35-11.69-26.273-26.067-26.273H64.179c-14.367 0-26.058 11.924-26.058 26.273 0 14.332 11.681 26.301 26.067 26.301h92.977zm-92.947-19.12c-3.848 0-6.978-3.354-6.978-7.182 0-3.82 3.121-7.156 6.949-7.156h92.938c3.838 0 6.958 3.336 6.958 7.156 0 3.822-3.121 7.182-6.963 7.182H64.218zM64.189 224.636h92.947c14.372 0 26.067-11.916 26.067-26.283 0-14.348-11.686-26.292-26.067-26.292H64.175c-14.367 0-26.053 11.944-26.053 26.292 0 14.368 11.69 26.283 26.067 26.283zm0-33.456h92.933c3.838 0 6.963 3.351 6.963 7.174 0 3.824-3.116 7.165-6.949 7.165H64.189c-3.833 0-6.949-3.341-6.949-7.165s3.12-7.174 6.949-7.174z"/><path d="M549.174 0H175.245C124.191 0 71.803 51.169 71.803 102.219v54.176c0 5.276 6.558 10.888 11.839 10.888h71.062c17.99 0 32.625 13.086 32.625 31.067 0 17.971-14.635 31.066-32.625 31.066H83.642c-5.277 0-11.839 6.037-11.839 11.313v66.239c0 5.281 6.558 8.479 11.839 8.479h71.062c17.99 0 32.625 15.471 32.625 33.461 0 17.971-14.635 33.451-32.625 33.451H83.642c-5.277 0-11.839 3.686-11.839 8.961v56.197c0 5.277 6.558 11.314 11.839 11.314h71.062c17.99 0 32.625 13.076 32.625 31.061 0 17.98-14.635 31.072-32.625 31.072H83.642c-5.277 0-11.839 5.625-11.839 10.902v54.15c0 51.055 52.388 102.23 103.442 102.23h373.929c51.063 0 100.952-51.176 100.952-102.23V102.219C650.122 51.169 600.233 0 549.174 0zm81.829 586.018c0 40.641-41.185 83.111-81.834 83.111H175.245c-40.64 0-84.324-42.471-84.324-83.111v-45.936h63.787c28.529 0 51.738-21.67 51.738-50.189 0-28.523-23.214-50.18-51.743-50.18H90.921v-38.236h63.787c28.529 0 51.733-24.068 51.733-52.568.005-28.529-23.209-52.58-51.738-52.58H90.921v-47.795h63.787c28.529 0 51.738-21.68 51.738-50.185 0-28.524-23.209-50.185-51.743-50.185H90.921v-45.945c0-40.635 43.685-83.101 84.324-83.101h373.929c40.645 0 81.834 42.466 81.834 83.101v483.799h-.005z"/><path d="M491.442 396.555l-2.537-.598c-3.509-1.807-53.86-25.871-72.979-34.35v-11.084c9.559-8.078 13.713-17.871 13.855-28.022l.588-1.042c6.453-3.842 11.528-11.576 12.943-21.221l.205-.598c1.606-10.83-1.696-20.667-8.039-25.929l1.229-12.202c.028-.306.062-.621.062-.932 0-23.463-18.606-56.508-59.992-56.508-41.396 0-60.012 33.045-60.012 56.508 0 .311.019.626.048.932l1.2 12.202c-6.342 5.253-9.707 15.07-8.111 25.833l.11.789c1.424 9.568 6.247 17.278 12.67 21.116l-.401 1.051c.144 10.166 2.825 19.969 12.384 28.032v11.031c-23.897 11.293-67.984 32.232-72.032 34.941-.65.432-1.114.891-2.06 1.406-5.979 3.289-16.719 9.41-16.719 21.857v54.844c0 5.277 3.996 8.121 9.272 8.121h247.291c5.276 0 11.088-2.844 11.088-8.121v-54.85c.011-13.572-14.284-20.323-20.063-23.206zm.956 67.056H262.696l-.01-44.492c.54-1.506 5.392-3.814 7.217-4.818 1.491-.822 2.825-1.396 3.704-1.984 4.158-2.498 48.129-23.447 75.186-36.113 3.36-1.572 4.999-4.855 4.999-8.568v-21.355c0-2.854-.77-5.554-2.968-7.37-3.518-2.906-9.167-8.966-9.167-16.919 0-.311.11-.622.081-.932l-.669-7.47c-.459-4.698-3.795-8.269-8.512-8.522-.698-.32-2.935-2.801-3.627-7.456l-.101-.779c-.617-4.168.401-7.031 1.061-8.044a9.561 9.561 0 007.948-9.425c0-.784-.096-1.548-.272-2.285l-1.668-16.943c.22-14.477 11.399-36.955 40.893-36.955 29.485 0 40.659 22.478 40.879 36.955l-1.797 18.291a9.53 9.53 0 002.428 7.351 9.574 9.574 0 005.363 2.987c.654.994 1.691 3.876 1.056 8.149l-.086.612c-.697 4.746-2.958 7.212-3.212 7.446a9.557 9.557 0 00-9.004 8.613l-.731 7.47c-.028.311-.048.622-.048.932 0 7.934-6.878 14.014-10.4 16.929-2.188 1.816-4.431 4.512-4.431 7.359v21.355c0 3.686 3.088 7.041 6.409 8.627 29.213 13.947 74.192 35.225 76.998 36.668l2.447.727c7.107 3.547 9.735 5.383 9.735 6.104v43.855h.001z"/></svg><svg viewBox="0 0 525.153 525.153" id="label" xmlns="http://www.w3.org/2000/svg"><path d="M509.682 251.504L273.342 15.251C263.933 5.777 250.76 0 236.341 0H52.471C23.632 0 0 23.632 0 52.471v183.847c0 14.42 5.777 27.592 15.47 37.308l236.34 236.253c9.409 9.497 22.582 15.273 37.001 15.273 14.42 0 27.592-5.777 37.001-15.47l183.847-183.847c9.715-9.431 15.492-22.603 15.492-37.023s-6.06-27.811-15.469-37.308zM91.88 131.288c-21.75 0-39.408-17.571-39.408-39.408 0-21.75 17.658-39.408 39.408-39.408 21.838 0 39.408 17.658 39.408 39.408 0 21.837-17.571 39.408-39.408 39.408z"/></svg><svg viewBox="0 0 438.536 438.536" id="telephone" xmlns="http://www.w3.org/2000/svg"><path d="M414.41 24.123C398.333 8.042 378.963 0 356.315 0H82.228C59.58 0 40.21 8.042 24.126 24.123 8.045 40.207.003 59.576.003 82.225v274.084c0 22.647 8.042 42.018 24.123 58.102 16.084 16.084 35.454 24.126 58.102 24.126h274.084c22.648 0 42.018-8.042 58.095-24.126 16.084-16.084 24.126-35.454 24.126-58.102V82.225c-.001-22.649-8.043-42.021-24.123-58.102zm-55.251 308.751c-3.997 8.754-12.99 16.371-26.977 22.846-13.99 6.475-26.413 9.712-37.265 9.712-3.046 0-6.283-.235-9.708-.711-3.426-.479-6.324-.952-8.703-1.428-2.378-.476-5.523-1.331-9.421-2.57-3.905-1.234-6.715-2.189-8.422-2.854-1.718-.664-4.856-1.854-9.421-3.566-4.569-1.718-7.427-2.765-8.562-3.138-31.215-11.427-61.721-32.028-91.507-61.814-29.786-29.793-50.391-60.292-61.812-91.502-.378-1.143-1.425-3.999-3.14-8.565a952.564 952.564 0 00-3.571-9.419c-.662-1.713-1.615-4.521-2.853-8.42-1.237-3.903-2.091-7.041-2.568-9.423-.478-2.376-.95-5.277-1.427-8.704-.476-3.427-.713-6.667-.713-9.71 0-10.85 3.237-23.269 9.71-37.259 6.472-13.988 14.084-22.981 22.841-26.979 10.088-4.189 19.7-6.283 28.837-6.283 2.091 0 3.616.192 4.565.572.953.385 2.524 2.094 4.714 5.14 2.19 3.046 4.568 6.899 7.137 11.563 2.57 4.665 5.092 9.186 7.566 13.562a601.267 601.267 0 017.139 12.991c2.284 4.279 3.711 6.995 4.281 8.133.571.957 1.809 2.762 3.711 5.429 1.902 2.663 3.333 5.039 4.283 7.135.95 2.094 1.427 4.093 1.427 5.996 0 2.859-1.953 6.331-5.854 10.42-3.903 4.093-8.186 7.854-12.85 11.281s-8.945 7.092-12.847 10.994c-3.899 3.899-5.852 7.087-5.852 9.562 0 1.333.333 2.902 1 4.71.666 1.812 1.285 3.287 1.856 4.427.571 1.141 1.477 2.76 2.712 4.856 1.237 2.096 2.048 3.427 2.426 3.999 10.467 18.843 22.508 35.07 36.114 48.681 13.612 13.613 29.836 25.648 48.682 36.117.567.384 1.902 1.191 4.004 2.43 2.091 1.232 3.713 2.136 4.853 2.707 1.143.571 2.614 1.191 4.425 1.852 1.811.664 3.381.999 4.719.999 3.036 0 7.225-3.138 12.56-9.418a976.681 976.681 0 0116.276-18.705c5.516-6.181 9.985-9.274 13.418-9.274 1.902 0 3.897.473 5.999 1.424 2.095.951 4.469 2.382 7.132 4.284 2.669 1.91 4.476 3.142 5.428 3.721l15.125 8.271c10.089 5.332 18.511 10.041 25.27 14.134s10.424 6.899 10.996 8.419c.379.951.564 2.478.564 4.572-.007 9.128-2.102 18.741-6.297 28.803z"/></svg><svg viewBox="0 0 785.816 1010" id="user" xmlns="http://www.w3.org/2000/svg"><g fill="#323B5A"><path d="M392.97 0c135.25 0 244.856 109.523 244.856 244.691 0 135.312-109.606 244.815-244.857 244.815-135.127 0-244.773-109.503-244.773-244.815C148.196 109.523 257.842 0 392.969 0zM785.816 1010H0V876.846c0-173.78 109.4-321.132 261.952-376.059L392.97 675.39l130.976-174.602c152.594 54.927 261.87 202.28 261.87 376.059V1010z"/></g></svg><svg viewBox="0 0 24 24" id="view" xmlns="http://www.w3.org/2000/svg"><path d="M19 5v2h-4V5h4M9 5v6H5V5h4m10 8v6h-4v-6h4M9 17v2H5v-2h4M21 3h-8v6h8V3M11 3H3v10h8V3m10 8h-8v10h8V11m-10 4H3v6h8v-6z"/></svg></svg>